# xmcd CD database file
#
# Track frame offsets:
#	150
#	13392
#	23876
#	38293
#	51029
#	62721
#	82015
#	97046
#	113408
#	125183
#	141436
#
# Disc length: 2082 seconds
#
# Revision: 0
# Processed by: cddbd v1.5.2PL0 Copyright (c) Steve Scherf et al.
# Submitted via: CDex 1.51
#
DISCID=9408200b
DTITLE=Various Artist - Country Hits of the '60s and '70s disc 4
DYEAR=2014
DGENRE=Country
TTITLE0=Dolly Parton - I Will Always Love You
TTITLE1=Willie Nelson - Blue Eyes Crying in the Rain
TTITLE2=Moe Bandy - Hank Williams, You Wrote My Life
TTITLE3=Gary Stewart - She's Actin' Single (I'm Drinkin' Doubles)
TTITLE4=Joe Stampley - Roll on Big Mama
TTITLE5=Marty Robbins - El Paso City
TTITLE6=Waylon Jennings - Luckenbach, Texas (Back to the Basics of Love)
TTITLE7=Ronnie Milsap - It was Almost Like a Song
TTITLE8=Johhny Paycheck - Take This Job and Shove it
TTITLE9=The Charlie Daniels Band - The Devil Went Down to Georgia
TTITLE10=George Jones - He Stopped Loving Her Today
EXTD=YEAR: 2014
EXTT0=
EXTT1=
EXTT2=
EXTT3=
EXTT4=
EXTT5=
EXTT6=
EXTT7=
EXTT8=
EXTT9=
EXTT10=
PLAYORDER=
